<mxfile host="app.diagrams.net" modified="2023-12-31T19:47:36.794Z" agent="Mozilla/5.0 (Macintosh; Intel Mac OS X 10_15_7) AppleWebKit/537.36 (KHTML, like Gecko) Chrome/120.0.0.0 Safari/537.36" etag="zxV6tztAdzzNgGvQEnbJ" version="22.1.16" type="github">
  <diagram name="Page-1" id="PtRkwBLiK60W-LUAjEJr">
    <mxGraphModel dx="954" dy="497" grid="1" gridSize="10" guides="1" tooltips="1" connect="1" arrows="1" fold="1" page="1" pageScale="1" pageWidth="827" pageHeight="1169" math="0" shadow="0">
      <root>
        <mxCell id="0" />
        <mxCell id="1" parent="0" />
        <mxCell id="PJjVTmEXp88TtdM-SL4s-18" value="" style="group" vertex="1" connectable="0" parent="1">
          <mxGeometry x="60" y="100" width="210" height="170" as="geometry" />
        </mxCell>
        <mxCell id="PJjVTmEXp88TtdM-SL4s-1" value="" style="ellipse;whiteSpace=wrap;html=1;aspect=fixed;" vertex="1" parent="PJjVTmEXp88TtdM-SL4s-18">
          <mxGeometry x="60" y="42" width="80" height="80" as="geometry" />
        </mxCell>
        <mxCell id="PJjVTmEXp88TtdM-SL4s-5" value="" style="endArrow=none;html=1;rounded=0;" edge="1" parent="PJjVTmEXp88TtdM-SL4s-18">
          <mxGeometry width="50" height="50" relative="1" as="geometry">
            <mxPoint x="50" y="81.5" as="sourcePoint" />
            <mxPoint x="150" y="81.5" as="targetPoint" />
          </mxGeometry>
        </mxCell>
        <mxCell id="PJjVTmEXp88TtdM-SL4s-8" value="" style="endArrow=none;html=1;rounded=0;entryX=0.5;entryY=1;entryDx=0;entryDy=0;" edge="1" parent="PJjVTmEXp88TtdM-SL4s-18">
          <mxGeometry width="50" height="50" relative="1" as="geometry">
            <mxPoint x="100" y="37" as="sourcePoint" />
            <mxPoint x="100" y="127" as="targetPoint" />
          </mxGeometry>
        </mxCell>
        <mxCell id="PJjVTmEXp88TtdM-SL4s-10" value="North" style="text;html=1;align=center;verticalAlign=middle;resizable=0;points=[];autosize=1;strokeColor=none;fillColor=none;" vertex="1" parent="PJjVTmEXp88TtdM-SL4s-18">
          <mxGeometry x="80" width="50" height="30" as="geometry" />
        </mxCell>
        <mxCell id="PJjVTmEXp88TtdM-SL4s-11" value="South" style="text;html=1;align=center;verticalAlign=middle;resizable=0;points=[];autosize=1;strokeColor=none;fillColor=none;" vertex="1" parent="PJjVTmEXp88TtdM-SL4s-18">
          <mxGeometry x="75" y="140" width="50" height="30" as="geometry" />
        </mxCell>
        <mxCell id="PJjVTmEXp88TtdM-SL4s-12" value="East" style="text;html=1;align=center;verticalAlign=middle;resizable=0;points=[];autosize=1;strokeColor=none;fillColor=none;" vertex="1" parent="PJjVTmEXp88TtdM-SL4s-18">
          <mxGeometry x="160" y="67" width="50" height="30" as="geometry" />
        </mxCell>
        <mxCell id="PJjVTmEXp88TtdM-SL4s-13" value="West" style="text;html=1;align=center;verticalAlign=middle;resizable=0;points=[];autosize=1;strokeColor=none;fillColor=none;" vertex="1" parent="PJjVTmEXp88TtdM-SL4s-18">
          <mxGeometry y="67" width="50" height="30" as="geometry" />
        </mxCell>
        <mxCell id="PJjVTmEXp88TtdM-SL4s-14" value="NE" style="text;html=1;align=center;verticalAlign=middle;resizable=0;points=[];autosize=1;strokeColor=none;fillColor=none;" vertex="1" parent="PJjVTmEXp88TtdM-SL4s-18">
          <mxGeometry x="130" y="30" width="40" height="30" as="geometry" />
        </mxCell>
        <mxCell id="PJjVTmEXp88TtdM-SL4s-15" value="SE" style="text;html=1;align=center;verticalAlign=middle;resizable=0;points=[];autosize=1;strokeColor=none;fillColor=none;" vertex="1" parent="PJjVTmEXp88TtdM-SL4s-18">
          <mxGeometry x="120" y="110" width="40" height="30" as="geometry" />
        </mxCell>
        <mxCell id="PJjVTmEXp88TtdM-SL4s-16" value="SW" style="text;html=1;align=center;verticalAlign=middle;resizable=0;points=[];autosize=1;strokeColor=none;fillColor=none;" vertex="1" parent="PJjVTmEXp88TtdM-SL4s-18">
          <mxGeometry x="40" y="110" width="40" height="30" as="geometry" />
        </mxCell>
        <mxCell id="PJjVTmEXp88TtdM-SL4s-17" value="NW" style="text;html=1;align=center;verticalAlign=middle;resizable=0;points=[];autosize=1;strokeColor=none;fillColor=none;" vertex="1" parent="PJjVTmEXp88TtdM-SL4s-18">
          <mxGeometry x="40" y="30" width="40" height="30" as="geometry" />
        </mxCell>
        <mxCell id="PJjVTmEXp88TtdM-SL4s-19" value="Kubernetes AKA K8s" style="text;html=1;align=center;verticalAlign=middle;resizable=0;points=[];autosize=1;strokeColor=none;fillColor=none;" vertex="1" parent="1">
          <mxGeometry x="80" y="30" width="130" height="30" as="geometry" />
        </mxCell>
        <mxCell id="PJjVTmEXp88TtdM-SL4s-21" value="&lt;h1&gt;Components:&lt;/h1&gt;&lt;p&gt;- API Server&lt;/p&gt;&lt;p&gt;- ETCD&lt;/p&gt;&lt;p&gt;- Deployment Manager&lt;/p&gt;&lt;p&gt;- Scheduler&lt;/p&gt;" style="text;html=1;strokeColor=none;fillColor=none;spacing=5;spacingTop=-20;whiteSpace=wrap;overflow=hidden;rounded=0;" vertex="1" parent="1">
          <mxGeometry x="400" y="80" width="190" height="170" as="geometry" />
        </mxCell>
        <mxCell id="PJjVTmEXp88TtdM-SL4s-29" value="" style="group" vertex="1" connectable="0" parent="1">
          <mxGeometry x="40" y="360" width="320" height="240" as="geometry" />
        </mxCell>
        <mxCell id="PJjVTmEXp88TtdM-SL4s-22" value="Master / Server&lt;br&gt;Control - Plane" style="whiteSpace=wrap;html=1;aspect=fixed;" vertex="1" parent="PJjVTmEXp88TtdM-SL4s-29">
          <mxGeometry x="120" width="80" height="80" as="geometry" />
        </mxCell>
        <mxCell id="PJjVTmEXp88TtdM-SL4s-23" value="Worker-1&lt;br&gt;Node 1&lt;br&gt;slave&lt;br&gt;workstation" style="whiteSpace=wrap;html=1;aspect=fixed;" vertex="1" parent="PJjVTmEXp88TtdM-SL4s-29">
          <mxGeometry y="160" width="80" height="80" as="geometry" />
        </mxCell>
        <mxCell id="PJjVTmEXp88TtdM-SL4s-26" style="edgeStyle=orthogonalEdgeStyle;rounded=0;orthogonalLoop=1;jettySize=auto;html=1;entryX=0.5;entryY=0;entryDx=0;entryDy=0;" edge="1" parent="PJjVTmEXp88TtdM-SL4s-29" source="PJjVTmEXp88TtdM-SL4s-22" target="PJjVTmEXp88TtdM-SL4s-23">
          <mxGeometry relative="1" as="geometry" />
        </mxCell>
        <mxCell id="PJjVTmEXp88TtdM-SL4s-24" value="Worker-2&lt;br&gt;Node 2&lt;br&gt;slave&lt;br&gt;workstation" style="whiteSpace=wrap;html=1;aspect=fixed;" vertex="1" parent="PJjVTmEXp88TtdM-SL4s-29">
          <mxGeometry x="120" y="160" width="80" height="80" as="geometry" />
        </mxCell>
        <mxCell id="PJjVTmEXp88TtdM-SL4s-27" style="edgeStyle=orthogonalEdgeStyle;rounded=0;orthogonalLoop=1;jettySize=auto;html=1;entryX=0.5;entryY=0;entryDx=0;entryDy=0;" edge="1" parent="PJjVTmEXp88TtdM-SL4s-29" source="PJjVTmEXp88TtdM-SL4s-22" target="PJjVTmEXp88TtdM-SL4s-24">
          <mxGeometry relative="1" as="geometry" />
        </mxCell>
        <mxCell id="PJjVTmEXp88TtdM-SL4s-25" value="Worker-3&lt;br&gt;Node 3&lt;br&gt;slave&lt;br&gt;workstation" style="whiteSpace=wrap;html=1;aspect=fixed;" vertex="1" parent="PJjVTmEXp88TtdM-SL4s-29">
          <mxGeometry x="240" y="160" width="80" height="80" as="geometry" />
        </mxCell>
        <mxCell id="PJjVTmEXp88TtdM-SL4s-28" style="edgeStyle=orthogonalEdgeStyle;rounded=0;orthogonalLoop=1;jettySize=auto;html=1;entryX=0.5;entryY=0;entryDx=0;entryDy=0;" edge="1" parent="PJjVTmEXp88TtdM-SL4s-29" source="PJjVTmEXp88TtdM-SL4s-22" target="PJjVTmEXp88TtdM-SL4s-25">
          <mxGeometry relative="1" as="geometry" />
        </mxCell>
      </root>
    </mxGraphModel>
  </diagram>
</mxfile>
